<svg width="51" height="50" viewBox="0 0 51 50" fill="none" xmlns="http://www.w3.org/2000/svg">
<circle cx="25.5625" cy="25" r="25" fill="#52948E"/>
<path d="M21.9914 24.4044L24.3724 26.7853L29.7295 21.4282M35.0867 24.9996C35.0867 30.843 28.7129 35.0929 26.3938 36.4459C26.1303 36.5996 25.9985 36.6765 25.8125 36.7164C25.6682 36.7473 25.4576 36.7473 25.3133 36.7164C25.1273 36.6765 24.9955 36.5996 24.7319 36.4459C22.4128 35.0929 16.0391 30.843 16.0391 24.9996V19.3063C16.0391 18.3545 16.0391 17.8786 16.1947 17.4695C16.3322 17.1081 16.5557 16.7856 16.8458 16.53C17.1742 16.2406 17.6198 16.0735 18.511 15.7393L24.8941 13.3456C25.1416 13.2528 25.2653 13.2064 25.3926 13.188C25.5055 13.1717 25.6202 13.1717 25.7331 13.188C25.8604 13.2064 25.9842 13.2528 26.2317 13.3456L32.6148 15.7393C33.506 16.0735 33.9516 16.2406 34.2799 16.53C34.57 16.7856 34.7935 17.1081 34.931 17.4695C35.0867 17.8786 35.0867 18.3545 35.0867 19.3063V24.9996Z" stroke="white" stroke-linecap="round" stroke-linejoin="round"/>
</svg>
