<svg width="50" height="51" viewBox="0 0 50 51" fill="none" xmlns="http://www.w3.org/2000/svg">
<circle cx="25" cy="25.7891" r="25" fill="#52948E"/>
<path d="M27.3795 19.8371H30.1619C30.4531 19.8371 30.5987 19.8371 30.7357 19.8699C30.8572 19.8991 30.9733 19.9472 31.0798 20.0125C31.1999 20.0861 31.3029 20.1891 31.5088 20.3949L36.3454 25.2315C36.5513 25.4374 36.6542 25.5404 36.7278 25.6605C36.7931 25.767 36.8412 25.8832 36.8704 26.0046C36.9033 26.1416 36.9033 26.2872 36.9033 26.5784V29.9561C36.9033 30.5108 36.9033 30.7881 36.8127 31.0069C36.6918 31.2986 36.4601 31.5304 36.1684 31.6512C35.9496 31.7418 35.6723 31.7418 35.1176 31.7418M29.1652 31.7418H27.3795M27.3795 31.7418V20.0751C27.3795 18.7417 27.3795 18.075 27.12 17.5656C26.8917 17.1176 26.5274 16.7534 26.0794 16.5251C25.5701 16.2656 24.9034 16.2656 23.5699 16.2656H16.9033C15.5698 16.2656 14.9031 16.2656 14.3938 16.5251C13.9458 16.7534 13.5815 17.1176 13.3533 17.5656C13.0938 18.075 13.0938 18.7417 13.0938 20.0751V29.3609C13.0938 30.6758 14.1597 31.7418 15.4747 31.7418M27.3795 31.7418H22.6176M22.6176 31.7418C22.6176 33.7143 21.0186 35.3132 19.0461 35.3132C17.0737 35.3132 15.4747 33.7143 15.4747 31.7418M22.6176 31.7418C22.6176 29.7694 21.0186 28.1704 19.0461 28.1704C17.0737 28.1704 15.4747 29.7694 15.4747 31.7418M35.1176 32.3371C35.1176 33.9808 33.7851 35.3132 32.1414 35.3132C30.4977 35.3132 29.1652 33.9808 29.1652 32.3371C29.1652 30.6933 30.4977 29.3609 32.1414 29.3609C33.7851 29.3609 35.1176 30.6933 35.1176 32.3371Z" stroke="white" stroke-linecap="round" stroke-linejoin="round"/>
</svg>
