<svg width="20" height="21" viewBox="0 0 20 21" fill="none" xmlns="http://www.w3.org/2000/svg">
<path d="M17.5 17.5283V9.40332M2.5 9.40332V17.5283M1.25 18.1533H18.75M11.25 18.1533V12.2158C11.25 11.9672 11.3488 11.7287 11.5246 11.5529C11.7004 11.3771 11.9389 11.2783 12.1875 11.2783H14.6875C14.9361 11.2783 15.1746 11.3771 15.3504 11.5529C15.5262 11.7287 15.625 11.9672 15.625 12.2158V18.1533M14.9402 1.90332H5.05977C4.20859 1.90332 3.43984 2.37207 3.10937 3.09316L1.41797 6.78613C0.848437 8.02871 1.79414 9.43652 3.26133 9.48145H3.33945C4.56602 9.48145 5.56016 8.49785 5.56016 7.44121C5.56016 8.4959 6.55469 9.48145 7.78125 9.48145C9.00781 9.48145 10 8.56816 10 7.44121C10 8.4959 10.9941 9.48145 12.2207 9.48145C13.4473 9.48145 14.4418 8.56816 14.4418 7.44121C14.4418 8.56816 15.4359 9.48145 16.6625 9.48145H16.7387C18.2059 9.43574 19.1516 8.02793 18.582 6.78613L16.8906 3.09316C16.5602 2.37207 15.7914 1.90332 14.9402 1.90332ZM5.3125 11.2783H8.4375C8.68614 11.2783 8.9246 11.3771 9.10041 11.5529C9.27623 11.7287 9.375 11.9672 9.375 12.2158V15.6533H4.375V12.2158C4.375 11.9672 4.47377 11.7287 4.64959 11.5529C4.8254 11.3771 5.06386 11.2783 5.3125 11.2783Z" stroke="#00968f" stroke-width="1.5" stroke-linecap="round" stroke-linejoin="round"/>
</svg>
