<svg width="20" height="21" viewBox="0 0 20 21" fill="none" xmlns="http://www.w3.org/2000/svg">
<path d="M17.6172 14.6372C16.9969 14.0122 15.4945 13.1001 14.7656 12.7326C13.8164 12.2544 13.7383 12.2154 12.9922 12.7697C12.4945 13.1396 12.1637 13.4701 11.5812 13.3458C10.9988 13.2216 9.73318 12.5212 8.62498 11.4165C7.51678 10.3118 6.77576 9.0095 6.65115 8.42904C6.52654 7.84857 6.86248 7.52161 7.22889 7.02279C7.74529 6.31966 7.70623 6.20247 7.26482 5.25325C6.92068 4.51497 5.98201 3.02669 5.35467 2.4095C4.68357 1.74661 4.68357 1.8638 4.25115 2.04349C3.89911 2.19161 3.56137 2.37166 3.24217 2.58138C2.61717 2.99661 2.27029 3.34154 2.02771 3.85989C1.78514 4.37825 1.67615 5.59349 2.92889 7.86927C4.18162 10.1451 5.06053 11.3087 6.87967 13.1228C8.69881 14.9368 10.0976 15.9122 12.1426 17.0591C14.6722 18.4759 15.6426 18.1997 16.1625 17.9576C16.6824 17.7154 17.0289 17.3716 17.4449 16.7466C17.6552 16.4279 17.8356 16.0906 17.984 15.7388C18.164 15.3079 18.2812 15.3079 17.6172 14.6372Z" stroke="#00968f" stroke-width="1.5" stroke-miterlimit="10"/>
</svg>
