<svg width="20" height="21" viewBox="0 0 20 21" fill="none" xmlns="http://www.w3.org/2000/svg">
<path fill-rule="evenodd" clip-rule="evenodd" d="M16.2004 3.82133C15.3914 3.01198 14.4304 2.37063 13.3726 1.9342C12.3147 1.49777 11.181 1.27488 10.0367 1.27836C5.23438 1.27836 1.325 5.1682 1.32305 9.95024C1.32092 11.4729 1.7223 12.969 2.48633 14.2862L1.25 18.7784L5.86914 17.5725C7.14774 18.2652 8.57903 18.6277 10.0332 18.6272H10.0367C14.8387 18.6272 18.7477 14.737 18.75 9.95531C18.7529 8.81491 18.529 7.68531 18.0913 6.63224C17.6536 5.57918 17.0108 4.62367 16.2004 3.82133ZM10.0367 17.1635H10.0336C8.73726 17.1639 7.46449 16.817 6.34766 16.1588L6.0832 16.0026L3.34219 16.7182L4.07383 14.0584L3.90156 13.785C3.17671 12.6374 2.79267 11.3076 2.79414 9.95024C2.79414 5.97641 6.04453 2.7432 10.0395 2.7432C11.9559 2.73978 13.7951 3.49771 15.1528 4.85028C16.5104 6.20286 17.2752 8.0393 17.2789 9.9557C17.2773 13.9299 14.0285 17.1635 10.0367 17.1635ZM14.009 11.7655C13.7914 11.6569 12.7199 11.1327 12.5215 11.0604C12.323 10.9881 12.1766 10.9518 12.0316 11.169C11.8867 11.3862 11.4691 11.8721 11.3422 12.0186C11.2152 12.1651 11.0883 12.1811 10.8707 12.0725C10.6531 11.9639 9.95117 11.7354 9.11953 10.9971C8.47227 10.4225 8.03555 9.71313 7.90859 9.49633C7.78164 9.27953 7.89492 9.16195 8.00391 9.05414C8.10195 8.95688 8.22148 8.80102 8.33047 8.67445C8.43945 8.54789 8.47578 8.45727 8.54805 8.31274C8.62031 8.1682 8.58437 8.04164 8.53008 7.93344C8.47578 7.82523 8.04023 6.75844 7.85898 6.32445C7.68203 5.9018 7.50273 5.95922 7.36914 5.95258C7.24219 5.94633 7.0957 5.94477 6.95156 5.94477C6.84137 5.94764 6.73295 5.97319 6.63308 6.01983C6.53321 6.06648 6.44402 6.13321 6.37109 6.21586C6.17148 6.43305 5.60898 6.95805 5.60898 8.02367C5.60898 9.0893 6.39023 10.1205 6.49805 10.2651C6.60586 10.4096 8.0332 12.5983 10.2172 13.537C10.6227 13.7106 11.0371 13.8629 11.4586 13.9932C11.9801 14.158 12.4547 14.135 12.8297 14.0791C13.248 14.017 14.1188 13.5549 14.2996 13.0487C14.4805 12.5424 14.4809 12.1088 14.4266 12.0186C14.3723 11.9284 14.227 11.8737 14.009 11.7655Z" fill="#00968f"/>
</svg>
