<svg width="26" height="26" viewBox="0 0 26 26" fill="none" xmlns="http://www.w3.org/2000/svg">
<path d="M23.8346 8.66694V13.0003M11.1055 5.9586H7.36797C5.5478 5.9586 4.63771 5.9586 3.9425 6.31283C3.33097 6.62442 2.83378 7.12161 2.5222 7.73314C2.16797 8.42835 2.16797 9.33844 2.16797 11.1586L2.16797 12.4586C2.16797 13.4681 2.16797 13.9729 2.3329 14.3711C2.5528 14.902 2.9746 15.3238 3.50549 15.5437C3.90366 15.7086 4.40843 15.7086 5.41797 15.7086V20.3128C5.41797 20.5643 5.41797 20.69 5.4284 20.796C5.52972 21.8247 6.34358 22.6385 7.37227 22.7398C7.4782 22.7503 7.60395 22.7503 7.85547 22.7503C8.10699 22.7503 8.23275 22.7503 8.33867 22.7398C9.36736 22.6385 10.1812 21.8247 10.2825 20.796C10.293 20.69 10.293 20.5643 10.293 20.3128V15.7086H11.1055C13.0191 15.7086 15.36 16.7344 17.166 17.7189C18.2195 18.2932 18.7463 18.5804 19.0913 18.5381C19.4113 18.4989 19.6532 18.3553 19.8407 18.0931C20.043 17.8104 20.043 17.2448 20.043 16.1135V5.55375C20.043 4.42243 20.043 3.85678 19.8407 3.57407C19.6532 3.31191 19.4113 3.16826 19.0913 3.12908C18.7463 3.08682 18.2195 3.37399 17.166 3.94832C15.36 4.93281 13.0191 5.9586 11.1055 5.9586Z" stroke="#4F4F4F" stroke-opacity="0.956863" stroke-width="1.5" stroke-linecap="round" stroke-linejoin="round"/>
</svg>
