<svg width="51" height="51" viewBox="0 0 51 51" fill="none" xmlns="http://www.w3.org/2000/svg">
<circle cx="25.0234" cy="25.1797" r="25" fill="#00968F"/>
<path d="M36.9267 22.8H13.1172M23.8315 27.5619H17.8791M13.1172 20.6572L13.1172 29.7048C13.1172 31.0383 13.1172 31.705 13.3767 32.2143C13.605 32.6623 13.9692 33.0265 14.4172 33.2548C14.9265 33.5143 15.5933 33.5143 16.9267 33.5143L33.1172 33.5143C34.4506 33.5143 35.1174 33.5143 35.6267 33.2548C36.0747 33.0265 36.4389 32.6623 36.6672 32.2143C36.9267 31.705 36.9267 31.0383 36.9267 29.7048V20.6572C36.9267 19.3237 36.9267 18.657 36.6672 18.1477C36.4389 17.6997 36.0747 17.3354 35.6267 17.1072C35.1174 16.8477 34.4506 16.8477 33.1172 16.8477L16.9267 16.8477C15.5933 16.8477 14.9265 16.8477 14.4172 17.1072C13.9692 17.3354 13.605 17.6997 13.3767 18.1477C13.1172 18.657 13.1172 19.3237 13.1172 20.6572Z" stroke="white" stroke-linecap="round" stroke-linejoin="round"/>
</svg>
