<svg width="50" height="50" viewBox="0 0 50 50" fill="none" xmlns="http://www.w3.org/2000/svg">
<circle cx="25" cy="25" r="25" fill="#00968F"/>
<path d="M21.7157 20.7118H21.7276M28.8582 27.8543H28.8701M30.0486 19.5214L20.5253 29.0447M37.1911 24.2831C37.1911 30.8576 31.8615 36.1872 25.287 36.1872C18.7125 36.1872 13.3828 30.8576 13.3828 24.2831C13.3828 17.7086 18.7125 12.3789 25.287 12.3789C31.8615 12.3789 37.1911 17.7086 37.1911 24.2831ZM22.3109 20.7118C22.3109 21.0405 22.0445 21.307 21.7157 21.307C21.387 21.307 21.1205 21.0405 21.1205 20.7118C21.1205 20.3831 21.387 20.1166 21.7157 20.1166C22.0445 20.1166 22.3109 20.3831 22.3109 20.7118ZM29.4534 27.8543C29.4534 28.183 29.187 28.4495 28.8582 28.4495C28.5295 28.4495 28.263 28.183 28.263 27.8543C28.263 27.5256 28.5295 27.2591 28.8582 27.2591C29.187 27.2591 29.4534 27.5256 29.4534 27.8543Z" stroke="white" stroke-linecap="round" stroke-linejoin="round"/>
</svg>
