<svg width="26" height="26" viewBox="0 0 26 26" fill="none" xmlns="http://www.w3.org/2000/svg">
<path d="M2.16406 2.16797H3.57907C3.84559 2.16797 3.97885 2.16797 4.08609 2.21698C4.1806 2.26017 4.26069 2.32963 4.31681 2.41708C4.38049 2.51631 4.39934 2.64823 4.43703 2.91207L4.94978 6.5013M4.94978 6.5013L6.08933 14.877C6.23394 15.9399 6.30624 16.4713 6.56034 16.8713C6.78424 17.2238 7.10524 17.5041 7.4847 17.6785C7.91533 17.8763 8.45167 17.8763 9.52435 17.8763H18.7954C19.8165 17.8763 20.327 17.8763 20.7443 17.6926C21.1122 17.5306 21.4277 17.2695 21.6557 16.9384C21.9142 16.5629 22.0098 16.0614 22.2008 15.0583L23.6348 7.53013C23.702 7.17709 23.7356 7.00057 23.6869 6.86259C23.6442 6.74155 23.5598 6.63963 23.4489 6.57499C23.3225 6.5013 23.1428 6.5013 22.7834 6.5013H4.94978ZM10.8307 22.7513C10.8307 23.3496 10.3457 23.8346 9.7474 23.8346C9.14909 23.8346 8.66406 23.3496 8.66406 22.7513C8.66406 22.153 9.14909 21.668 9.7474 21.668C10.3457 21.668 10.8307 22.153 10.8307 22.7513ZM19.4974 22.7513C19.4974 23.3496 19.0124 23.8346 18.4141 23.8346C17.8158 23.8346 17.3307 23.3496 17.3307 22.7513C17.3307 22.153 17.8158 21.668 18.4141 21.668C19.0124 21.668 19.4974 22.153 19.4974 22.7513Z" stroke="#4F4F4F" stroke-width="1.5" stroke-linecap="round" stroke-linejoin="round"/>
</svg>
