<svg width="26" height="26" viewBox="0 0 26 26" fill="none" xmlns="http://www.w3.org/2000/svg">
<path d="M12.999 16.25C9.56477 16.25 6.51072 17.9082 4.56635 20.4815C4.14787 21.0353 3.93863 21.3122 3.94548 21.6865C3.95076 21.9756 4.13233 22.3404 4.35984 22.5189C4.65431 22.75 5.06238 22.75 5.87853 22.75H20.1195C20.9357 22.75 21.3437 22.75 21.6382 22.5189C21.8657 22.3404 22.0473 21.9756 22.0526 21.6865C22.0594 21.3122 21.8502 21.0353 21.4317 20.4815C19.4873 17.9082 16.4333 16.25 12.999 16.25Z" stroke="#4F4F4F" stroke-width="1.5" stroke-linecap="round" stroke-linejoin="round"/>
<path d="M12.999 13C15.6914 13 17.874 10.8174 17.874 8.125C17.874 5.43261 15.6914 3.25 12.999 3.25C10.3066 3.25 8.12403 5.43261 8.12403 8.125C8.12403 10.8174 10.3066 13 12.999 13Z" stroke="#4F4F4F" stroke-width="1.5" stroke-linecap="round" stroke-linejoin="round"/>
</svg>
