<svg width="26" height="26" viewBox="0 0 26 26" fill="none" xmlns="http://www.w3.org/2000/svg">
<path d="M22.75 11.918L14.523 3.69101C13.961 3.12892 13.6799 2.84787 13.3519 2.64689C13.0611 2.46869 12.7441 2.33738 12.4125 2.25777C12.0385 2.16797 11.641 2.16797 10.8461 2.16797L6.5 2.16797M3.25 9.4263L3.25 11.5654C3.25 12.0953 3.25 12.3603 3.30987 12.6096C3.36294 12.8307 3.45048 13.0421 3.56928 13.2359C3.70327 13.4546 3.89063 13.6419 4.26536 14.0167L12.7154 22.4667C13.5734 23.3247 14.0024 23.7537 14.4971 23.9145C14.9323 24.0559 15.401 24.0559 15.8362 23.9145C16.3309 23.7537 16.7599 23.3247 17.618 22.4667L20.2987 19.7859C21.1567 18.9279 21.5858 18.4989 21.7465 18.0042C21.8879 17.569 21.8879 17.1003 21.7465 16.6651C21.5858 16.1704 21.1567 15.7414 20.2987 14.8833L12.3904 6.975C12.0156 6.60027 11.8283 6.41291 11.6096 6.27892C11.4158 6.16012 11.2044 6.07258 10.9833 6.0195C10.734 5.95964 10.469 5.95964 9.93906 5.95964H6.71667C5.50322 5.95964 4.8965 5.95964 4.43302 6.19579C4.02534 6.40351 3.69388 6.73497 3.48615 7.14266C3.25 7.60613 3.25 8.21286 3.25 9.4263Z" stroke="#4F4F4F" stroke-opacity="0.956863" stroke-width="1.5" stroke-linecap="round" stroke-linejoin="round"/>
</svg>
